<?xml version="1.0" encoding="UTF-8"?><svg id="Layer_2" xmlns="http://www.w3.org/2000/svg" xmlns:xlink="http://www.w3.org/1999/xlink" viewBox="0 0 732.67 1024.51"><defs><style>.cls-1,.cls-2{fill:none;}.cls-3{clip-path:url(#clippath);}.cls-4{fill:#002be7;}.cls-5{fill:#ff1c5b;}.cls-6{fill:#19d5fe;}.cls-2{stroke:#000;stroke-miterlimit:10;stroke-width:.86px;}</style><clipPath id="clippath"><rect class="cls-1" x="0" width="732.67" height="1024.51"/></clipPath></defs><g id="Layer_1-2"><g class="cls-3"><path class="cls-2" d="M437.74-59.77C500.33-.69,512.73,46.03,511.82,78.45c-.25,8.85-1.52,17.83-2.8,26.7-3.38,23.29-6.9,45.82,7.55,63.09,14.18,16.95,37.13,18.62,39.23,18.74,20.84,1.22,33.28-10.22,48.51-23.31,10.82-9.3,23.05-19.45,40.7-26.48,51.97-20.71,105.33,3.62,113.23,7.29,46.45,21.63,61.23,59.31,82.31,85.27,34.45,42.43,107.96,80.95,279.42,63.52"/><circle class="cls-5" cx="556.78" cy="137.3" r="29.69"/><circle class="cls-6" cx="69.62" cy="207.88" r="22.13"/><path class="cls-2" d="M-50.52,86.77C-24.76,142.5,3.45,160.69,25.55,166.35c26.17,6.71,57.04-.73,72.34,19.85,6.36,8.55,7.04,17.98,7.31,22.54,2.56,43.25-51.57,60.28-84.9,117.98-3.61,6.24-28.18,50-24.87,103.71"/><circle class="cls-4" cx="637.31" cy="928.33" r="41.43"/><path class="cls-2" d="M752.46,662.13c-58.78,65.03-68.1,114.35-64.68,148.35,4.51,44.81,34.09,92.17,10.19,139.57-2.05,4.44-6.23,12.42-13.8,20.06-77.89,78.69-289.94-104.63-510.55-65.04-52.13,9.36-126.13,35-208.23,111.51"/><path d="M700,865.58c8.67,29.36,13.15,58.79-1.4,87.16-25.31,52.86-87.04,41.7-133.05,27.51,19.09,4.64,38.53,8.77,58.2,9.51,19.27,.74,39.75-2.68,54.83-15.39,14.99-12.44,23.61-31.47,26.7-50.42,2.81-19.53-.87-39.29-5.27-58.36h0Z"/><path class="cls-2" d="M752.46,662.13c-58.78,65.03-68.1,114.35-64.68,148.35,4.51,44.81,34.09,92.17,10.19,139.57-2.05,4.44-6.23,12.42-13.8,20.06-77.89,78.69-289.94-104.63-510.55-65.04-52.13,9.36-126.13,35-208.23,111.51"/><path d="M58.31,170.35c14.11,.25,30.26,2.23,39.72,13.98,9.31,11.27,10.55,28.27,6.06,41.8-3.18,9.14-9.11,16.97-15.84,23.75,5.76-7.41,11.1-15.39,13.8-24.4,4.25-15.15,1.95-33.97-10.81-44.39-9.28-7.46-21.49-9.04-32.93-10.73h0Z"/><path class="cls-2" d="M317.04-91.37c13.61,38.62,11.81,67.38,6.87,87.37-7.33,29.65-24.19,55.37-12.01,77.37,0,0,4.45,8.04,13.97,14.21,47.43,30.77,199.62-78.79,339.53-58.15,95.31,14.06,135.74,81.29,248.26,65.97,21.94-2.99,39.6-8.16,51.07-12.06"/><path class="cls-2" d="M-51.1,916.78c181.24-71.08,239.89-60.7,258.74-36.23,18.48,23.99,6.58,71.73,42.13,96.75,16.19,11.39,33.79,12.15,43.26,12.44,98.91,3.02,189.59-128.14,326.2-147.16,102.1-14.22,156.9,43.26,277.91-.69,23.06-8.38,41.03-17.71,52.35-24.11"/><path d="M509.02,105.16c-1.93,19.78-5.86,42.33,6.48,59.55,11.28,15.76,35.18,24.23,53.98,20.02,13.53-3.16,24.15-12.65,34.83-21.05-10.08,9.36-20.6,19.52-34.31,23.12-19.72,5.07-44.9-3.8-56.61-20.6-12.5-17.91-8.03-41.02-4.37-61.04h0Z"/></g></g></svg>