<svg version="1.1" id="Layer_1" xmlns="http://www.w3.org/2000/svg" xmlns:xlink="http://www.w3.org/1999/xlink" x="0px" y="0px"
	 width="100%" viewBox="0 0 4782 2423" enable-background="new 0 0 4782 2423" xml:space="preserve">

<path  opacity="1.000000" stroke="none" 
	d="
M793.999634,1433.492188 
	C695.424744,1433.492188 597.849854,1433.492188 498.833160,1433.492188 
	C499.942749,1448.634644 500.618866,1462.837280 502.087738,1476.957397 
	C506.214874,1516.632080 515.003601,1555.206665 531.998474,1591.471924 
	C573.490234,1680.011963 642.571594,1733.128906 738.875549,1749.811890 
	C794.456055,1759.440186 849.912537,1757.810303 903.973999,1740.398804 
	C970.839844,1718.863525 1018.705811,1675.905029 1045.941040,1610.681519 
	C1046.838501,1608.532227 1047.756592,1606.391235 1048.710693,1604.266846 
	C1048.826538,1604.008789 1049.228394,1603.879150 1050.566406,1602.939819 
	C1114.772095,1614.511841 1179.883179,1626.246948 1246.447632,1638.244141 
	C1242.496704,1650.200317 1239.258423,1661.582886 1235.018311,1672.579102 
	C1201.835571,1758.636841 1143.007812,1822.018311 1062.862061,1866.380737 
	C1012.163696,1894.443359 957.777100,1911.512329 900.621094,1919.989136 
	C834.572693,1929.784546 768.455261,1930.015137 702.408081,1920.044556 
	C616.653198,1907.098877 538.870911,1875.614380 471.776337,1819.715088 
	C411.666595,1769.635010 367.844604,1707.671753 338.038727,1635.588989 
	C311.940399,1572.472534 298.461639,1506.496094 293.682861,1438.552856 
	C290.236694,1389.555908 290.688019,1340.619507 295.939117,1291.782349 
	C306.100128,1197.280762 333.362610,1108.511597 386.701141,1029.031128 
	C458.720642,921.714050 557.758972,854.037598 685.378174,830.843506 
	C788.390869,812.121399 889.401855,820.642578 986.260071,861.844727 
	C1081.979004,902.562378 1152.889404,970.294495 1199.237671,1063.616089 
	C1229.993774,1125.543213 1246.873535,1191.270142 1254.324097,1259.752563 
	C1260.433472,1315.906982 1259.575928,1372.236572 1259.553101,1428.558594 
	C1259.552612,1429.821411 1259.212036,1431.083862 1258.865112,1433.492188 
	C1104.095947,1433.492188 949.547852,1433.492188 793.999634,1433.492188 
M1012.999329,1277.576050 
	C1026.883179,1277.576050 1040.766968,1277.576050 1054.112183,1277.576050 
	C1054.870972,1275.799683 1055.275391,1275.227661 1055.342407,1274.618530 
	C1055.487671,1273.300537 1055.530762,1271.961548 1055.492920,1270.634644 
	C1054.381470,1231.742676 1048.557739,1193.715210 1033.775269,1157.485840 
	C1006.892700,1091.600952 961.761780,1043.014893 896.123596,1014.560913 
	C855.255066,996.844604 812.068726,992.081482 767.978027,994.479492 
	C722.684082,996.942871 679.897034,1008.488098 641.212708,1032.686157 
	C564.766357,1080.505493 520.349670,1149.995483 504.080170,1238.051514 
	C501.743652,1250.697632 500.747681,1263.591431 498.978882,1277.576050 
	C670.706848,1277.576050 840.853210,1277.576050 1012.999329,1277.576050 
z"/>
<path  opacity="1.000000" stroke="none" 
	d="
M3356.000000,1905.774902 
	C3322.759521,1905.774902 3290.519043,1905.774902 3257.598633,1905.774902 
	C3257.598633,1856.893799 3257.598633,1808.996826 3257.598633,1760.931396 
	C3252.019531,1758.363525 3248.959717,1759.551880 3246.068848,1764.623413 
	C3197.717773,1849.447998 3123.677246,1898.879883 3029.696289,1919.895874 
	C2980.825439,1930.824585 2931.186279,1931.546265 2881.481934,1926.738770 
	C2833.010986,1922.050781 2786.400879,1910.149170 2742.572754,1888.586914 
	C2678.560059,1857.094360 2629.462158,1810.429565 2599.144531,1745.247070 
	C2584.100098,1712.902710 2576.239502,1678.568970 2573.147705,1643.119995 
	C2569.712402,1603.735474 2570.445312,1564.480591 2578.902588,1525.727173 
	C2595.082275,1451.586914 2638.164062,1397.330566 2703.306396,1359.932495 
	C2746.398682,1335.193115 2792.834961,1319.170288 2841.150391,1308.067139 
	C2898.697266,1294.842529 2956.926025,1286.113770 3015.586670,1279.750732 
	C3060.301514,1274.900635 3104.961182,1269.501221 3149.578613,1263.819702 
	C3168.406982,1261.422241 3186.975830,1257.304077 3204.804688,1250.473389 
	C3208.527588,1249.047119 3212.194336,1247.463745 3215.838867,1245.843872 
	C3237.702637,1236.126343 3249.818359,1218.988281 3251.201660,1195.452759 
	C3253.398438,1158.085938 3248.971680,1121.517822 3232.909668,1087.165161 
	C3211.649658,1041.694336 3175.661621,1013.716553 3127.869873,1000.328064 
	C3098.751465,992.170776 3068.888184,989.577454 3038.773682,990.457947 
	C3002.980957,991.504517 2967.469482,995.403442 2933.989746,1008.951660 
	C2875.305908,1032.699585 2832.659912,1074.090088 2803.887451,1130.156982 
	C2802.523926,1132.813599 2801.265625,1135.524170 2799.378418,1139.401123 
	C2734.727539,1124.701172 2669.974121,1109.977905 2604.181152,1095.018311 
	C2605.815918,1090.333252 2607.098389,1086.314819 2608.606934,1082.382935 
	C2650.533203,973.119324 2727.978760,899.521606 2836.455078,858.402222 
	C2916.412598,828.093384 2999.648926,817.560669 3084.895752,823.498169 
	C3136.240479,827.074341 3186.851562,835.246826 3235.568359,852.309509 
	C3278.653076,867.399841 3318.810059,888.314941 3352.896973,919.155518 
	C3405.789551,967.010986 3438.694824,1026.304321 3451.971436,1096.457520 
	C3458.254883,1129.660278 3460.543213,1163.179321 3460.540527,1196.914062 
	C3460.521729,1429.577148 3460.530273,1662.240356 3460.530518,1894.903442 
	C3460.530518,1898.167358 3460.530518,1901.431274 3460.530518,1905.774902 
	C3425.468994,1905.774902 3391.234375,1905.774902 3356.000000,1905.774902 
M2828.052979,1495.020142 
	C2805.208496,1512.503784 2788.159424,1534.059937 2780.654785,1562.350220 
	C2775.289062,1582.576660 2774.453613,1603.199219 2776.228516,1623.858398 
	C2779.894775,1666.521851 2798.691162,1700.627930 2834.732178,1724.648193 
	C2858.643066,1740.583984 2885.019531,1750.354126 2912.998291,1756.065186 
	C2949.921631,1763.602173 2987.160645,1763.893921 3024.408691,1759.533569 
	C3063.179199,1754.994995 3100.029541,1743.962402 3133.555908,1723.474731 
	C3211.054688,1676.116211 3251.535889,1607.395508 3252.162354,1516.079712 
	C3252.441406,1475.433716 3252.209229,1434.784180 3252.209229,1394.136230 
	C3252.209229,1390.935913 3252.209229,1387.735718 3252.209229,1382.991211 
	C3231.975342,1397.004761 3210.272949,1402.942383 3188.328613,1408.267090 
	C3136.776611,1420.776123 3084.168701,1426.887573 3031.741943,1434.055786 
	C2996.120850,1438.926392 2960.352295,1442.835938 2925.466553,1452.036743 
	C2891.184570,1461.078247 2857.795654,1472.143799 2828.052979,1495.020142 
z"/>
<path  opacity="1.000000" stroke="none" 
	d="
M1390.035278,835.895691 
	C1434.614014,835.895691 1478.200317,835.895691 1523.008057,835.895691 
	C1523.008057,715.581116 1523.008057,596.145081 1523.008057,476.191467 
	C1592.757690,476.191467 1661.282227,476.191467 1730.772949,476.191467 
	C1730.772949,595.638245 1730.772949,715.083130 1730.772949,835.529175 
	C1804.186279,835.529175 1876.647583,835.529175 1949.763184,835.529175 
	C1949.763184,891.656799 1949.763184,946.785034 1949.763184,1002.939941 
	C1877.197754,1002.939941 1804.712524,1002.939941 1731.635498,1002.939941 
	C1731.441406,1007.164429 1731.162476,1010.407471 1731.162109,1013.650574 
	C1731.141724,1204.283081 1731.139526,1394.915527 1731.150391,1585.547974 
	C1731.151733,1609.253174 1732.106689,1632.878540 1738.328613,1655.942993 
	C1744.898071,1680.294556 1757.984497,1700.269287 1778.804199,1714.781616 
	C1793.958984,1725.345703 1811.480469,1729.411011 1829.359985,1732.082642 
	C1861.110352,1736.826660 1892.480469,1733.750977 1923.640747,1727.035767 
	C1926.192017,1726.485962 1928.791260,1726.157837 1932.459839,1725.544067 
	C1944.988770,1782.767212 1957.419312,1839.541016 1970.097534,1897.445923 
	C1961.886597,1899.930054 1954.090454,1902.541870 1946.160034,1904.648071 
	C1878.332153,1922.662354 1809.970703,1925.248657 1741.411133,1909.842285 
	C1692.981079,1898.959106 1648.587402,1879.079712 1611.013916,1845.769043 
	C1561.472900,1801.848633 1533.069702,1746.859131 1525.900635,1681.121948 
	C1524.026123,1663.933838 1523.114746,1646.555420 1523.098877,1629.263062 
	C1522.911377,1425.299805 1522.978516,1221.336304 1522.978516,1017.372803 
	C1522.978516,1013.081177 1522.978516,1008.789551 1522.978516,1003.062378 
	C1509.584961,1002.758728 1496.735840,1002.952332 1483.898560,1002.917603 
	C1470.901001,1002.882507 1457.903198,1002.909851 1444.905518,1002.909851 
	C1431.907837,1002.909851 1418.910156,1002.909851 1405.912476,1002.909851 
	C1392.970581,1002.909851 1380.028687,1002.909912 1366.614624,1002.909912 
	C1366.614624,947.147461 1366.614624,892.297241 1366.614624,836.224915 
	C1374.043091,836.115845 1381.542847,836.005737 1390.035278,835.895691 
z"/>
<path  opacity="1.000000" stroke="none" 
	d="
M3906.894775,1010.000732 
	C3906.894775,1308.872070 3906.894775,1606.743286 3906.894775,1905.194824 
	C3837.277344,1905.194824 3768.508545,1905.194824 3699.158203,1905.194824 
	C3699.158203,1428.912842 3699.158203,952.874451 3699.158203,476.252930 
	C3768.222412,476.252930 3837.044189,476.252930 3906.894775,476.252930 
	C3906.894775,653.914062 3906.894775,831.457397 3906.894775,1010.000732 
z"/>
<path  opacity="1.000000" stroke="none" 
	d="
M4146.838867,1798.780640 
	C4143.608398,1767.647461 4147.383789,1738.604126 4163.304199,1712.187622 
	C4212.485352,1630.579956 4303.809082,1625.615356 4358.660645,1662.319702 
	C4408.144043,1695.432007 4431.066895,1741.840088 4422.437988,1801.806274 
	C4413.961914,1860.706055 4358.319824,1920.007690 4282.644043,1918.933960 
	C4212.901855,1917.944458 4160.937500,1865.195312 4149.346191,1812.426025 
	C4148.419434,1808.206177 4147.763672,1803.926758 4146.838867,1798.780640 
z"/>

</svg>